# xmcd
#
# Track frame offsets:
#	150
#	19192
#	41963
#	65573
#	90606
#	117596
#	137013
#	159845
#	175540
#	196723
#
# Disc length: 2694 seconds
#
# Revision: 0
# Processed by: cddbd v1.5.2PL0 Copyright (c) Steve Scherf et al.
# Submitted via: audiograbber 1.83.01
#
DISCID=7f0a840a
DTITLE=Ombre di Luci - Origine
DYEAR=2000
DGENRE=Vocal
TTITLE0=Libertá
TTITLE1=Tango dei Cherubini
TTITLE2=Malinconia
TTITLE3=Pizza Piccante
TTITLE4=Miracolo
TTITLE5=Perché
TTITLE6=Ave Maria
TTITLE7=La Ballata del Trombonista
TTITLE8=Nana
TTITLE9=Tanti Saluti
EXTD=YEAR: 2000
EXTT0=
EXTT1=
EXTT2=
EXTT3=
EXTT4=
EXTT5=
EXTT6=
EXTT7=
EXTT8=
EXTT9=
PLAYORDER=
